<svg version="1.1" xmlns="http://www.w3.org/2000/svg" xmlns:xlink="http://www.w3.org/1999/xlink" width="63.38482" height="63.38483" viewBox="0,0,63.38482,63.38483"><g transform="translate(-208.30759,-148.30759)"><g data-paper-data="{&quot;isPaintingLayer&quot;:true}" stroke-linecap="butt" stroke-linejoin="miter" stroke-miterlimit="10" stroke-dasharray="" stroke-dashoffset="0" style="mix-blend-mode: normal"><path d="M240.00826,151.30759c7.91992,0.00223 15.08984,3.21331 20.28034,8.40381c5.19231,5.19231 8.40381,12.36541 8.40381,20.2886c0,7.92319 -3.21151,15.09629 -8.40381,20.2886c-5.19231,5.19231 -12.36541,8.40381 -20.2886,8.40381c-7.92319,0 -15.09629,-3.21151 -20.2886,-8.40381c-5.19231,-5.19231 -8.40381,-12.36541 -8.40381,-20.2886c0,-7.83727 3.14221,-14.94065 8.23559,-20.11898c5.1001,-5.18516 12.15644,-8.44049 19.9734,-8.56944z" fill="#ffffff" fill-rule="evenodd" stroke="#000000" stroke-width="6"/><path d="M227.86754,193.48198l10.33328,-27.76708h2.55927v4.1564h-0.88516l-8.37053,23.61068zM232.60122,185.53478l1.15456,-2.94412h12.31527l1.15456,2.94412zM248.30318,193.48198l-8.35129,-23.61068v-4.1564h1.67411l10.31404,27.76708z" fill="#000000" fill-rule="nonzero" stroke="none" stroke-width="1"/></g></g></svg>