<svg xmlns:xlink="http://www.w3.org/1999/xlink" xmlns="http://www.w3.org/2000/svg" version="1.1" viewBox="0 0 89 88" height="88px" width="89px">
    <title>Artboard Copy 4</title>
    <g fill-rule="evenodd" fill="none" stroke-width="1" stroke="none" id="Artboard-Copy-4">
        <path fill="#FFFFFF" stroke-width="6" stroke="#000000" id="Rectangle" d="M44.4208563,11.000002 C53.6457706,11.0031419 61.9985425,14.699002 68.0449042,20.677427 C74.081498,26.646194 77.8181818,34.891144 77.8181818,44 C77.8181818,53.108856 74.081498,61.353806 68.0449042,67.322573 C61.9959721,73.3035395 53.6386684,77 44.4090909,77 C35.1795134,77 26.8222098,73.3035395 20.7732777,67.322573 C14.7366838,61.353806 11,53.108856 11,44 C11,34.990048 14.6559498,26.8252821 20.5774833,20.8726292 C26.518358,14.9005333 34.7385748,11.1537039 43.8433108,11.0046284 Z"></path>
        <path fill="#FFFFFF" stroke-width="6" stroke="#000000" id="Rectangle-Copy" d="M44.4190196,11.0000012 C53.7119195,11.0022098 62.1404844,14.1051128 68.2362034,19.1734635 C74.1149274,24.0613913 77.8181818,30.7942672 77.8181818,38.2727273 C77.8181818,45.7511874 74.1149274,52.4840632 68.2362034,57.3719911 C62.1383135,62.4421467 53.7059159,65.5454545 44.4090909,65.5454545 C35.1122659,65.5454545 26.6798683,62.4421467 20.5819784,57.3719911 C14.7032544,52.4840632 11,45.7511874 11,38.2727273 C11,30.8774075 14.6216755,24.210521 20.3873351,19.3366457 C26.3751036,14.2750153 34.6681941,11.1297191 43.8374996,11.0039183 Z"></path>
        <path fill-rule="nonzero" fill="#000000" id="Shape" d="M30,51 L42.0223881,18 L45,18 L45,22.9397089 L43.9701493,22.9397089 L34.2313433,51 L30,51 Z M36,42 L37.3421053,39 L51.6578947,39 L53,42 L36,42 Z M53.752809,51 L44,22.9397089 L44,18 L45.9550562,18 L58,51 L53.752809,51 Z"></path>
    </g>
</svg>