<svg xmlns:xlink="http://www.w3.org/1999/xlink" xmlns="http://www.w3.org/2000/svg" version="1.1" viewBox="0 0 89 88" height="88px" width="89px">
    <title>Artboard Copy 5</title>
    <g fill-rule="evenodd" fill="none" stroke-width="1" stroke="none" id="Artboard-Copy-5">
        <path fill="#FFFFFF" stroke-width="6" stroke="#000000" id="Rectangle" d="M44.4208563,11.000002 C53.6457706,11.0031419 61.9985425,14.699002 68.0449042,20.677427 C74.081498,26.646194 77.8181818,34.891144 77.8181818,44 C77.8181818,53.108856 74.081498,61.353806 68.0449042,67.322573 C61.9959721,73.3035395 53.6386684,77 44.4090909,77 C35.1795134,77 26.8222098,73.3035395 20.7732777,67.322573 C14.7366838,61.353806 11,53.108856 11,44 C11,34.990048 14.6559498,26.8252821 20.5774833,20.8726292 C26.518358,14.9005333 34.7385748,11.1537039 43.8433108,11.0046284 Z"></path>
        <path fill="#FFFFFF" stroke-width="6" stroke="#000000" id="Rectangle-Copy" d="M44.4190196,11.0000012 C53.7119195,11.0022098 62.1404844,14.1051128 68.2362034,19.1734635 C74.1149274,24.0613913 77.8181818,30.7942672 77.8181818,38.2727273 C77.8181818,45.7511874 74.1149274,52.4840632 68.2362034,57.3719911 C62.1383135,62.4421467 53.7059159,65.5454545 44.4090909,65.5454545 C35.1122659,65.5454545 26.6798683,62.4421467 20.5819784,57.3719911 C14.7032544,52.4840632 11,45.7511874 11,38.2727273 C11,30.8774075 14.6216755,24.210521 20.3873351,19.3366457 C26.3751036,14.2750153 34.6681941,11.1297191 43.8374996,11.0039183 Z"></path>
        <path fill-rule="nonzero" fill="#000000" id="Shape-Copy" d="M39,41 L39,37.8965517 L46.2446449,37.8965517 C48.2251033,37.8965517 49.7583615,37.3760776 50.8444194,36.3351293 C51.9304773,35.294181 52.4735062,33.8556034 52.4735062,32.0193966 L52.4735062,31.9806034 C52.4735062,30.1314655 51.9304773,28.6896552 50.8444194,27.6551724 C49.7583615,26.6206897 48.2251033,26.1034483 46.2446449,26.1034483 L39,26.1034483 L39,23 L47.1262683,23 C48.8639609,23 50.3972191,23.375 51.7260428,24.125 C53.0548666,24.875 54.0993987,25.9224138 54.8596392,27.2672414 C55.6198797,28.612069 56,30.1702586 56,31.9418103 L56,31.9806034 C56,33.7521552 55.6198797,35.3168103 54.8596392,36.674569 C54.0993987,38.0323276 53.0548666,39.0926724 51.7260428,39.8556034 C50.3972191,40.6185345 48.8639609,41 47.1262683,41 L39,41 Z M37,51 L37,23 L40,23 L40,51 L37,51 Z"></path>
    </g>
</svg>