<svg version="1.1" xmlns="http://www.w3.org/2000/svg" xmlns:xlink="http://www.w3.org/1999/xlink" width="63.61739" height="63.61739" viewBox="0,0,63.61739,63.61739"><g transform="translate(-208.1913,-148.1913)"><g data-paper-data="{&quot;isPaintingLayer&quot;:true}" stroke-linecap="butt" stroke-linejoin="miter" stroke-miterlimit="10" stroke-dasharray="" stroke-dashoffset="0" style="mix-blend-mode: normal"><path d="M240.00829,151.1913c7.95201,0.00224 15.151,3.22633 20.36253,8.43787c5.21335,5.21335 8.43787,12.41552 8.43787,20.37082c0,7.9553 -3.22452,15.15748 -8.43787,20.37082c-5.21335,5.21335 -12.41552,8.43787 -20.37082,8.43787c-7.9553,0 -15.15748,-3.22452 -20.37082,-8.43787c-5.21335,-5.21335 -8.43787,-12.41552 -8.43787,-20.37082c0,-7.86903 3.15494,-15.0012 8.26897,-20.20052c5.12077,-5.20618 12.20571,-8.4747 20.05434,-8.60417z" fill="#ffffff" fill-rule="evenodd" stroke="#000000" stroke-width="6"/><path d="M232.919,183.58651v-3.09129h7.30318c1.99646,0 3.54211,-0.51844 4.63694,-1.55531c1.09483,-1.03687 1.64225,-2.46982 1.64225,-4.29883v-0.03864c0,-1.8419 -0.54742,-3.27806 -1.64225,-4.30849c-1.09483,-1.03043 -2.64048,-1.54565 -4.63694,-1.54565h-7.30318v-3.09129h8.19193c1.75173,0 3.29738,0.37353 4.63694,1.12059c1.33956,0.74706 2.39253,1.79037 3.15892,3.12994c0.76638,1.33956 1.14958,2.89165 1.14958,4.65626v0.03864c0,1.76461 -0.38319,3.32314 -1.14958,4.67558c-0.76638,1.35244 -1.81936,2.40863 -3.15892,3.16858c-1.33956,0.75994 -2.88521,1.13991 -4.63694,1.13991zM231.18015,193.53662v-27.87961h3.47771v27.87961z" fill="#000000" fill-rule="nonzero" stroke="none" stroke-width="1"/></g></g></svg>